#!OML:ASF F:\VICON\USERDATA\INSTALL\rory3\rory3.ASF
:FULLY-SPECIFIED
:DEGREES
2648
root 1.2729 17.6773 3.10213 -1.5197 27.2209 -14.3047
lowerback 4.56888 3.62089 0.8876
upperback -0.330383 4.77305 -4.22556
thorax -2.46365 2.35211 -5.17343
lowerneck -25.4763 -14.3615 -11.7254
upperneck -1.83393 -16.9011 19.1375
head 6.16105 -6.88148 5.6856
rclavicle 3.97569e-016 -1.90833e-014
rhumerus 61.4735 -23.3642 -16.8296
rradius 37.4345
rwrist 52.518
rhand -51.7557 -13.6659
rfingers 7.12502
rthumb -24.2733 -42.1493
lclavicle 3.97569e-016 -1.90833e-014
lhumerus -39.6727 14.4714 54.2941
lradius 47.6493
lwrist -9.54363
lhand -21.2566 25.8515
lfingers 7.12502
lthumb 5.1266 415.769
rfemur -4.20015 -11.0898 21.2324
rtibia 28.7368
rfoot -18.9792 -21.451
rtoes 2.19821
lfemur -21.9376 -4.63226 -2.28185
ltibia 37.9788
lfoot -19.0237 -5.26836
ltoes -20.1444
2649
root 1.28393 17.6784 3.09696 -1.51416 27.2888 -14.3242
lowerback 4.61945 3.62484 0.85874
upperback -0.411652 4.7725 -4.28392
thorax -2.57352 2.34889 -5.22648
lowerneck -24.9838 -14.3456 -11.7376
upperneck -2.14292 -16.8969 19.2517
head 6.00908 -6.91334 5.74376
rclavicle -1.23246e-013 -1.59028e-014
rhumerus 61.1485 -23.0434 -16.2822
rradius 37.6031
rwrist 52.6749
rhand -51.3153 -13.077
rfingers 7.12502
rthumb -23.851 -41.6161
lclavicle -1.23246e-013 -1.59028e-014
lhumerus -39.828 14.3428 54.5876
lradius 47.4203
lwrist -9.56189
lhand -21.0799 25.1041
lfingers 7.12502
lthumb 5.29725 415.018
rfemur -4.27264 -11.0592 21.2005
rtibia 28.7793
rfoot -18.9753 -21.4185
rtoes 2.81096
lfemur -21.9977 -4.57503 -2.32195
ltibia 37.9732
lfoot -19.0374 -5.30292
ltoes -20.4587
2650
root 1.29255 17.6839 3.09383 -1.46553 27.3453 -14.1512
lowerback 4.70668 3.62577 0.636129
upperback -0.44562 4.75703 -4.36
thorax -2.67069 2.3417 -5.18907
lowerneck -24.7924 -14.379 -11.6159
upperneck -2.2295 -16.9647 19.0689
head 5.93019 -6.97305 5.66255
rclavicle -7.63333e-014 2.8625e-014
rhumerus 60.6735 -22.6953 -15.2565
rradius 37.7772
rwrist 52.4653
rhand -51.3096 -13.7868
rfingers 7.12502
rthumb -23.8455 -42.3268
lclavicle -7.63333e-014 2.8625e-014
lhumerus -39.9436 14.3344 54.9005
lradius 47.2358
lwrist -9.44869
lhand -21.0701 24.2938
lfingers 7.12502
lthumb 5.30667 414.207
rfemur -4.28899 -10.9516 20.9926
rtibia 28.8081
rfoot -18.8509 -21.548
rtoes 3.69096
lfemur -21.9552 -4.54921 -2.54061
ltibia 37.9463
lfoot -18.9255 -5.44074
ltoes -19.682
2651
root 1.2979 17.6903 3.09378 -1.37618 27.3828 -14.0023
lowerback 4.72045 3.61068 0.423311
upperback -0.476277 4.72155 -4.44699
thorax -2.72331 2.32545 -5.16139
lowerneck -24.8363 -14.4493 -11.5899
upperneck -2.01909 -17.0941 19.0161
head 6.01223 -7.02915 5.61222
rclavicle -1.98785e-014 5.08889e-014
rhumerus 60.2831 -22.3906 -14.498
rradius 37.9386
rwrist 52.177
rhand -51.2646 -13.9771
rfingers 7.12502
rthumb -23.8024 -42.5226
lclavicle -1.98785e-014 5.08889e-014
lhumerus -40.0989 14.4388 55.1395
lradius 47.113
lwrist -9.40673
lhand -21.1665 24.0069
lfingers 7.12502
lthumb 5.21362 413.923
rfemur -4.34357 -10.8372 20.8365
rtibia 28.8322
rfoot -18.6845 -21.7181
rtoes 4.84998
lfemur -21.9397 -4.40311 -2.71197
ltibia 37.9265
lfoot -18.6876 -5.72286
ltoes -18.1194
2652
root 1.3058 17.6917 3.09321 -1.30905 27.3858 -14.0349
lowerback 4.62987 3.6011 0.436234
upperback -0.479602 4.71023 -4.50475
thorax -2.67111 2.32052 -5.22139
lowerneck -24.8663 -14.5244 -11.8133
upperneck -1.8844 -17.1849 19.2819
head 6.12519 -7.04818 5.70785
rclavicle 2.26615e-014 6.36111e-015
rhumerus 60.2467 -22.2993 -14.4089
rradius 37.9545
rwrist 52.4504
rhand -51.3776 -14.1379
rfingers 7.12502
rthumb -23.9107 -42.6693
lclavicle 2.26615e-014 6.36111e-015
lhumerus -40.154 14.5524 55.397
lradius 46.9765
lwrist -9.32833
lhand -21.2021 23.8342
lfingers 7.12502
lthumb 5.17921 413.751
rfemur -4.47351 -10.7747 20.8595
rtibia 28.8679
rfoot -18.6565 -21.7547
rtoes 5.00137
lfemur -22.0377 -4.17575 -2.7072
ltibia 37.9225
lfoot -18.6918 -5.92134
ltoes -18.0113
2653
root 1.31486 17.6866 3.09118 -1.36048 27.4155 -14.2196
lowerback 4.53914 3.588 0.613786
upperback -0.429773 4.70554 -4.55484
thorax -2.55064 2.31873 -5.36339
lowerneck -24.7997 -14.5411 -11.8695
upperneck -2.0192 -17.2089 19.5475
head 6.11639 -7.05049 5.79944
rclavicle 9.85972e-014 -2.54444e-014
rhumerus 60.116 -22.2936 -14.3039
rradius 37.9816
rwrist 52.7137
rhand -51.0371 -13.4778
rfingers 7.12502
rthumb -23.5842 -42.0516
lclavicle 9.85972e-014 -2.54444e-014
lhumerus -40.1017 14.5974 55.6192
lradius 46.8615
lwrist -9.39007
lhand -21.0532 23.3688
lfingers 7.12502
lthumb 5.32301 413.282
rfemur -4.55596 -10.7633 21.0219
rtibia 28.9146
rfoot -18.6096 -21.6987
rtoes 4.59129
lfemur -22.1514 -3.87524 -2.57861
ltibia 37.9471
lfoot -18.9715 -5.98404
ltoes -19.643
2654
root 1.31878 17.6856 3.09174 -1.43754 27.4824 -14.2876
lowerback 4.58329 3.58669 0.587765
upperback -0.414022 4.70111 -4.60773
thorax -2.55721 2.3169 -5.40662
lowerneck -24.6337 -14.5656 -11.8679
upperneck -2.11868 -17.2694 19.7344
head 6.09512 -7.08114 5.853
rclavicle 8.78628e-014 -5.725e-014
rhumerus 59.6608 -22.0971 -13.6927
rradius 38.1085
rwrist 52.6683
rhand -51.0954 -13.6716
rfingers 7.12502
rthumb -23.6401 -42.2381
lclavicle 8.78628e-014 -5.725e-014
lhumerus -40.0808 14.6898 55.7702
lradius 46.7283
lwrist -9.49759
lhand -20.8083 23.1634
lfingers 7.12502
lthumb 5.55947 413.071
rfemur -4.54146 -10.7629 21.0826
rtibia 28.9634
rfoot -18.5282 -21.768
rtoes 4.26585
lfemur -22.1615 -3.68739 -2.54462
ltibia 37.9652
lfoot -19.1593 -6.14281
ltoes -20.3819
2655
root 1.31948 17.6859 3.09248 -1.4923 27.5664 -14.2937
lowerback 4.64853 3.56804 0.438775
upperback -0.391497 4.66705 -4.61219
thorax -2.58525 2.30152 -5.3297
lowerneck -24.5277 -14.5923 -11.8201
upperneck -2.19742 -17.3181 19.7272
head 6.05707 -7.11467 5.83874
rclavicle -4.41302e-014 -4.45278e-014
rhumerus 59.2619 -21.8859 -12.9104
rradius 38.1534
rwrist 52.3379
rhand -51.5173 -14.8637
rfingers 7.12502
rthumb -24.0447 -43.3774
lclavicle -4.41302e-014 -4.45278e-014
lhumerus -40.174 14.7329 56.015
lradius 46.7396
lwrist -9.38695
lhand -20.6021 23.4193
lfingers 7.12502
lthumb 5.75851 413.321
rfemur -4.51373 -10.7362 21.1034
rtibia 29.0136
rfoot -18.534 -21.8171
rtoes 4.88343
lfemur -22.1555 -3.51125 -2.55108
ltibia 37.9836
lfoot -19.2187 -6.45107
ltoes -20.3392
2656
root 1.32065 17.6865 3.09105 -1.48694 27.6365 -14.3005
lowerback 4.67423 3.52859 0.332235
upperback -0.3848 4.60792 -4.61307
thorax -2.60658 2.27303 -5.26912
lowerneck -24.5806 -14.6029 -11.7351
upperneck -2.18415 -17.3438 19.6499
head 6.05502 -7.12835 5.79502
rclavicle 7.07673e-014 -8.26944e-014
rhumerus 58.9632 -21.7594 -12.2146
rradius 38.1575
rwrist 51.9886
rhand -51.2258 -14.6949
rfingers 7.12502
rthumb -23.7652 -43.2452
lclavicle 7.07673e-014 -8.26944e-014
lhumerus -40.3324 14.7577 56.2578
lradius 46.7952
lwrist -9.26498
lhand -20.6685 24.0654
lfingers 7.12502
lthumb 5.69437 413.969
rfemur -4.54358 -10.709 21.123
rtibia 29.0676
rfoot -18.6792 -21.7578
rtoes 6.12407
lfemur -22.2112 -3.31699 -2.55949
ltibia 37.9994
lfoot -19.2485 -6.72454
ltoes -20.1928
2657
root 1.32266 17.6856 3.08611 -1.50481 27.6564 -14.3815
lowerback 4.67574 3.50243 0.329357
upperback -0.368599 4.57362 -4.59787
thorax -2.59526 2.25631 -5.2489
lowerneck -24.5096 -14.6154 -11.7297
upperneck -2.30047 -17.355 19.6862
head 6.0139 -7.14008 5.80773
rclavicle -6.20208e-014 1.90833e-014
rhumerus 58.9051 -21.7906 -12.1631
rradius 38.1816
rwrist 52.4046
rhand -51.1282 -14.2222
rfingers 7.12502
rthumb -23.6716 -42.7847
lclavicle -6.20208e-014 1.90833e-014
lhumerus -40.3863 15.0182 56.413
lradius 46.6676
lwrist -9.55049
lhand -20.616 23.9495
lfingers 7.12502
lthumb 5.74512 413.852
rfemur -4.60634 -10.8041 21.19
rtibia 29.1323
rfoot -18.6925 -21.5154
rtoes 7.02356
lfemur -22.3014 -3.12352 -2.49491
ltibia 38.0532
lfoot -19.2427 -6.92962
ltoes -19.9572
2658
root 1.32597 17.6847 3.08166 -1.49262 27.5905 -14.4437
lowerback 4.62035 3.51066 0.31523
upperback -0.346238 4.58658 -4.54884
thorax -2.54497 2.26413 -5.18491
lowerneck -24.3683 -14.6685 -11.9278
upperneck -2.43823 -17.3763 19.7896
head 5.98274 -7.1571 5.87219
rclavicle 5.04913e-014 -3.18055e-015
rhumerus 59.11 -21.9286 -12.6434
rradius 38.193
rwrist 53.3476
rhand -50.9946 -13.2467
rfingers 7.12502
rthumb -23.5435 -41.8257
lclavicle 5.04913e-014 -3.18055e-015
lhumerus -40.4795 15.2803 56.6177
lradius 46.5656
lwrist -9.70626
lhand -20.6641 23.1409
lfingers 7.12502
lthumb 5.69864 413.044
rfemur -4.73547 -10.8537 21.2436
rtibia 29.2098
rfoot -18.3886 -21.3916
rtoes 6.95357
lfemur -22.381 -2.91031 -2.43132
ltibia 38.145
lfoot -19.2512 -7.17128
ltoes -19.417
2659
root 1.32775 17.6803 3.077 -1.42063 27.5431 -14.4356
lowerback 4.56279 3.50241 0.27402
upperback -0.337498 4.57491 -4.54223
thorax -2.50847 2.25956 -5.14931
lowerneck -24.4368 -14.693 -12.0623
upperneck -2.32683 -17.3888 19.8319
head 6.04615 -7.15215 5.89879
rclavicle 1.13705e-013 -1.90833e-014
rhumerus 59.0685 -21.9686 -12.5214
rradius 38.1853
rwrist 53.5324
rhand -51.0704 -12.8965
rfingers 7.12502
rthumb -23.6161 -41.4662
lclavicle 1.13705e-013 -1.90833e-014
lhumerus -40.6133 15.1914 56.8532
lradius 46.637
lwrist -9.40645
lhand -20.7059 22.6825
lfingers 7.12502
lthumb 5.65834 412.587
rfemur -4.89926 -11.0153 21.2158
rtibia 29.2902
rfoot -17.8679 -21.399
rtoes 6.96173
lfemur -22.4811 -2.76908 -2.42851
ltibia 38.2602
lfoot -19.1106 -7.4057
ltoes -18.378
